<?xml version="1.0" encoding="UTF-8" standalone="no"?>
<svg
   id="Calque_1"
   data-name="Calque 1"
   viewBox="0 0 423.54 472.84"
   version="1.1"
   sodipodi:docname="box.svg"
   inkscape:export-filename="C:\Dev\mondial-relay\frontend\public\img\box.png"
   inkscape:export-xdpi="42.333302"
   inkscape:export-ydpi="42.333302"
   inkscape:version="1.1 (c68e22c387, 2021-05-23)"
   xmlns:inkscape="http://www.inkscape.org/namespaces/inkscape"
   xmlns:sodipodi="http://sodipodi.sourceforge.net/DTD/sodipodi-0.dtd"
   xmlns="http://www.w3.org/2000/svg"
   xmlns:svg="http://www.w3.org/2000/svg">
  <sodipodi:namedview
     id="namedview9"
     pagecolor="#505050"
     bordercolor="#eeeeee"
     borderopacity="1"
     inkscape:pageshadow="0"
     inkscape:pageopacity="0"
     inkscape:pagecheckerboard="0"
     showgrid="false"
     inkscape:zoom="0.4293207"
     inkscape:cx="-137.42641"
     inkscape:cy="338.90749"
     inkscape:window-width="1920"
     inkscape:window-height="1001"
     inkscape:window-x="-9"
     inkscape:window-y="-9"
     inkscape:window-maximized="1"
     inkscape:current-layer="Calque_1" />
  <defs
     id="defs4">
    <style
       id="style2">.cls-1{fill:#204068;}</style>
  </defs>
  <path
     style="fill:#f2de6d;fill-opacity:1;fill-rule:evenodd;stroke:none;stroke-width:3.11251;stroke-linecap:round;stroke-linejoin:round;paint-order:markers fill stroke"
     d="m 222.56689,367.90673 c -0.31825,-132.20268 -0.41963,-121.85256 1.21806,-124.35049 0.78928,-1.20386 3.01278,-3.10125 4.94111,-4.21644 26.43885,-15.28991 55.2506,-31.81323 55.4728,-31.81323 0.15544,0 0.38517,18.68485 0.51052,41.52188 l 0.2279,41.52187 2.00948,2.13844 c 3.02627,3.22049 7.51507,4.30985 11.42706,2.77317 5.01077,-1.96828 57.92012,-33.56501 60.9076,-36.37317 4.73384,-4.4497 4.75989,-4.85933 3.06218,-48.14775 -1.87429,-47.79059 -1.84254,-44.81101 -0.50406,-47.312 0.67112,-1.254 4.37918,-3.84441 9.49478,-6.63296 4.61649,-2.51648 12.80382,-7.19551 18.19408,-10.39784 5.39025,-3.20233 10.18847,-5.69306 10.66271,-5.53496 0.59418,0.1981 0.86223,30.73129 0.86223,98.21744 v 97.92999 l -2.23165,4.7626 c -3.67538,7.84372 -7.75018,10.87304 -38.12074,28.34001 -15.39979,8.85686 -52.3671,30.13905 -82.14958,47.29374 -29.78248,17.1547 -54.51891,31.19036 -54.96984,31.19036 -0.53727,0 -0.88701,-27.88951 -1.01464,-80.91066 z"
     id="path954" />
  <path
     style="fill:#f2de6d;fill-opacity:1;fill-rule:evenodd;stroke:none;stroke-width:3.11251;stroke-linecap:round;stroke-linejoin:round;paint-order:markers fill stroke"
     d="M 190.64445,444.13695 C 185.4357,441.15497 155.60375,423.98743 124.35124,405.98686 93.098727,387.9863 60.857991,369.48029 52.705161,364.8624 c -8.152829,-4.6179 -16.40815,-9.62716 -18.345156,-11.13168 -4.822438,-3.74571 -8.889166,-9.03779 -11.097466,-14.44124 l -1.851067,-4.52935 -0.222414,-96.57701 c -0.196089,-85.14602 -0.07647,-96.633 1.01062,-97.05016 1.521419,-0.58382 -6.747385,-5.22832 92.994212,52.23384 76.31221,43.96425 84.00735,48.58772 85.08499,51.12156 1.02156,2.40198 1.09188,16.71991 0.51041,103.92808 l -0.67438,101.14231 z"
     id="path1030" />
  <path
     style="fill:#938962;fill-opacity:1;fill-rule:evenodd;stroke:none;stroke-width:3.11251;stroke-linecap:round;stroke-linejoin:round;paint-order:markers fill stroke"
     d="m 305.93699,231.20284 c 0,-27.10431 0.23596,-35.21342 1.05733,-36.33671 0.58153,-0.79529 8.08584,-5.44696 16.67624,-10.33706 14.01554,-7.97835 15.63935,-8.71259 15.81801,-7.15247 0.1095,0.95623 0.75123,16.37018 1.42608,34.25323 0.97158,25.74636 1.01585,32.71132 0.21267,33.45951 -0.7403,0.68962 -28.83486,17.4798 -34.57269,20.66171 -0.3397,0.18838 -0.61764,-15.35831 -0.61764,-34.54821 z"
     id="path1069" />
  <path
     style="fill:#f2de6d;fill-opacity:1;fill-rule:evenodd;stroke:none;stroke-width:3.11251;stroke-linecap:round;stroke-linejoin:round;paint-order:markers fill stroke"
     d="m 207.52657,222.22632 c -1.3588,-0.47828 -5.91798,-3.1417 -10.13149,-5.91871 -4.21353,-2.77701 -42.24519,-25.06647 -84.51483,-49.53214 -42.269642,-24.46566 -77.653143,-45.0389 -78.630008,-45.7183 -1.695854,-1.17946 -0.463256,-1.99355 27.275393,-18.01446 15.978331,-9.228552 29.826673,-16.779184 30.774093,-16.779184 0.94742,0 41.642602,23.080424 90.433742,51.289834 70.21308,40.59485 88.48657,51.49316 87.63406,52.26494 -0.5924,0.53631 -9.04463,5.54801 -18.78274,11.13712 -9.7381,5.5891 -20.29972,11.89501 -23.47026,14.01312 -10.73078,7.1688 -15.7819,8.94945 -20.58796,7.25778 z"
     id="path1108" />
  <path
     style="fill:#938962;fill-opacity:1;fill-rule:evenodd;stroke:none;stroke-width:3.11251;stroke-linecap:round;stroke-linejoin:round;paint-order:markers fill stroke"
     d="m 204.2325,125.06932 c -48.46404,-28.082141 -88.57299,-51.323574 -89.131,-51.647634 -1.35137,-0.784792 30.64606,-19.255734 32.76569,-18.914434 1.70096,0.273888 178.64274,102.089558 178.62585,102.784718 -0.0167,0.68865 -32.03387,18.94473 -33.126,18.88835 -0.55996,-0.0289 -40.6705,-23.02886 -89.13454,-51.111 z"
     id="path1147" />
  <path
     style="fill:#f2de6d;fill-opacity:1;fill-rule:evenodd;stroke:none;stroke-width:3.11251;stroke-linecap:round;stroke-linejoin:round;paint-order:markers fill stroke"
     d="M 262.05102,94.74669 C 215.04051,67.611831 174.87906,44.415301 172.80333,43.198845 l -3.77404,-2.211737 5.66059,-3.299491 c 15.84852,-9.237914 28.14394,-15.472895 32.15452,-16.305488 5.39238,-1.119454 11.00207,-0.113021 18.02958,3.234681 2.68817,1.28057 23.41674,13.060238 46.06349,26.177042 22.64675,13.116802 58.85231,34.014076 80.45681,46.438386 29.31813,16.860262 39.03049,22.818792 38.29359,23.493122 -1.90246,1.7409 -39.90223,23.39015 -41.02694,23.37388 -0.62495,-0.009 -39.59941,-22.21769 -86.60991,-49.35255 z"
     id="path1186" />
</svg>
