<?xml version="1.0" encoding="UTF-8" standalone="no"?>
<!-- Created with Inkscape (http://www.inkscape.org/) -->

<svg
   width="600mm"
   height="617.04773mm"
   viewBox="0 0 600 617.04773"
   version="1.1"
   id="svg454"
   inkscape:version="1.1 (c68e22c387, 2021-05-23)"
   sodipodi:docname="Mondial_Relay.svg"
   inkscape:export-filename="C:\Users\acer\Downloads\logo.png"
   inkscape:export-xdpi="42.333332"
   inkscape:export-ydpi="42.333332"
   xmlns:inkscape="http://www.inkscape.org/namespaces/inkscape"
   xmlns:sodipodi="http://sodipodi.sourceforge.net/DTD/sodipodi-0.dtd"
   xmlns="http://www.w3.org/2000/svg"
   xmlns:svg="http://www.w3.org/2000/svg"
   xmlns:rdf="http://www.w3.org/1999/02/22-rdf-syntax-ns#"
   xmlns:cc="http://creativecommons.org/ns#"
   xmlns:dc="http://purl.org/dc/elements/1.1/">
  <defs
     id="defs448" />
  <sodipodi:namedview
     id="base"
     pagecolor="#ffffff"
     bordercolor="#666666"
     borderopacity="1.0"
     inkscape:pageopacity="0.0"
     inkscape:pageshadow="2"
     inkscape:zoom="0.12374369"
     inkscape:cx="1567.7568"
     inkscape:cy="343.45187"
     inkscape:document-units="mm"
     inkscape:current-layer="g407"
     showgrid="false"
     inkscape:pagecheckerboard="true"
     fit-margin-top="0"
     fit-margin-left="0"
     fit-margin-right="0"
     fit-margin-bottom="0"
     inkscape:window-width="1920"
     inkscape:window-height="1001"
     inkscape:window-x="-9"
     inkscape:window-y="-9"
     inkscape:window-maximized="1" />
  <metadata
     id="metadata451">
    <rdf:RDF>
      <cc:Work
         rdf:about="">
        <dc:format>image/svg+xml</dc:format>
        <dc:type
           rdf:resource="http://purl.org/dc/dcmitype/StillImage" />
        <dc:title />
      </cc:Work>
    </rdf:RDF>
  </metadata>
  <g
     inkscape:label="Calque 1"
     inkscape:groupmode="layer"
     id="layer1"
     transform="translate(-118.69745,430.82084)">
    <g
       transform="matrix(8.24357,0,0,-8.24357,-1244.409,955.76124)"
       id="g407">
      <g
         transform="translate(238.1379,105.9684)"
         id="g78">
        <path
           inkscape:connector-curvature="0"
           id="path80"
           style="fill:#ce0c4b;fill-opacity:1;fill-rule:nonzero;stroke:none"
           d="m 0,0 c -0.153,-4.751 -3.553,-9.039 -8.199,-10.146 -19.022,-3.297 -37.363,-3.297 -56.386,0 C -69.231,-9.04 -72.63,-4.75 -72.784,0 v 49.615 c 0.153,4.751 3.554,9.038 8.199,10.146 19.023,3.296 37.364,3.297 56.386,-0.001 C -3.553,58.654 -0.153,54.366 0,49.615 Z" />
      </g>
      <g
         transform="translate(205.7088,145.9246)"
         id="g82">
        <path
           inkscape:connector-curvature="0"
           id="path84"
           style="fill:#ffffff;fill-opacity:1;fill-rule:nonzero;stroke:none"
           d="m 0,0 c -4.032,0.719 -6.721,-1.441 -6.721,-4.943 v -11.564 l -6.335,3.772 v 7.792 c 0,7.007 4.848,11.902 13.056,10.894 z" />
      </g>
      <path
         inkscape:connector-curvature="0"
         id="path86"
         style="fill:#c7bcaf;fill-opacity:1;fill-rule:nonzero;stroke:none"
         d="m 213.185,145.907 h -5.983 v 5.983 h 5.983 z" />
      <g
         transform="translate(217.7796,122.5175)"
         id="g108">
        <path
           inkscape:connector-curvature="0"
           id="path110"
           style="fill:#ffffff;fill-opacity:1;fill-rule:nonzero;stroke:none"
           d="M 0,0 0.533,1.583 1.066,0 Z M 1.399,2.134 C 1.176,2.791 0.847,2.792 0.677,2.792 H 0.389 c -0.17,0 -0.497,-0.002 -0.722,-0.658 -0.347,-1.004 -1.4,-4.012 -1.4,-4.012 h 1.101 l 0.304,0.898 h 1.722 l 0.303,-0.898 h 1.101 z" />
      </g>
      <g
         transform="translate(181.968,120.7368)"
         id="g112">
        <path
           inkscape:connector-curvature="0"
           id="path114"
           style="fill:#ffffff;fill-opacity:1;fill-rule:nonzero;stroke:none"
           d="M 0,0 V 0.092 Z M -0.946,-0.092 V 2.993 C -0.949,3.374 -1.212,3.667 -1.628,3.67 -2.052,3.666 -2.295,3.377 -2.299,2.993 V -0.092 H -3.344 V 2.993 C -3.347,3.375 -3.603,3.667 -4.021,3.67 -4.444,3.667 -4.7,3.375 -4.703,2.993 v -3.085 h -1.032 v 3.071 c 0.002,0.945 0.709,1.706 1.714,1.708 0.485,10e-4 0.904,-0.203 1.196,-0.528 0.29,0.326 0.718,0.528 1.197,0.528 1.011,-0.002 1.719,-0.763 1.72,-1.708 V 0 -0.092 Z" />
      </g>
      <g
         transform="translate(187.2723,122.9987)"
         id="g116">
        <path
           inkscape:connector-curvature="0"
           id="path118"
           style="fill:#ffffff;fill-opacity:1;fill-rule:nonzero;stroke:none"
           d="M 0,0 C 0.001,-0.798 0.564,-1.437 1.245,-1.439 1.92,-1.437 2.484,-0.798 2.484,0 2.484,0.792 1.921,1.431 1.245,1.433 0.564,1.431 0,0.792 0,0 m -1.045,0 c 0.003,1.343 0.963,2.423 2.29,2.425 C 2.566,2.423 3.527,1.343 3.529,0 3.527,-1.348 2.566,-2.429 1.245,-2.432 -0.082,-2.429 -1.042,-1.348 -1.045,0" />
      </g>
      <g
         transform="translate(197.9778,124.9385)"
         id="g120">
        <path
           inkscape:connector-curvature="0"
           id="path122"
           style="fill:#ffffff;fill-opacity:1;fill-rule:nonzero;stroke:none"
           d="m 0,0 c 0.31,-0.309 0.479,-0.749 0.479,-1.229 v -3.065 h -1.037 v 3.085 C -0.567,-0.771 -0.796,-0.54 -1.242,-0.532 -1.68,-0.54 -1.91,-0.771 -1.919,-1.209 v -3.085 h -1.037 v 3.065 c -10e-4,0.48 0.169,0.92 0.479,1.229 0.316,0.317 0.755,0.486 1.235,0.485 C -0.755,0.486 -0.316,0.317 0,0" />
      </g>
      <g
         transform="translate(204.7421,124.3351)"
         id="g124">
        <path
           inkscape:connector-curvature="0"
           id="path126"
           style="fill:#ffffff;fill-opacity:1;fill-rule:nonzero;stroke:none"
           d="m 0,0 h -0.716 l 0.001,-2.711 H 0 C 0.937,-2.71 1.069,-1.888 1.077,-1.349 1.068,-0.697 0.894,-0.003 0,0 M 0,-3.691 H -1.754 V 0.98 H 0 C 0.645,0.98 1.18,0.756 1.548,0.346 1.916,-0.061 2.115,-0.648 2.115,-1.356 2.115,-2.058 1.911,-2.642 1.54,-3.053 1.171,-3.462 0.637,-3.691 0.002,-3.691 H 0" />
      </g>
      <path
         inkscape:connector-curvature="0"
         id="path128"
         style="fill:#ffffff;fill-opacity:1;fill-rule:nonzero;stroke:none"
         d="m 210.87,125.315 h 1.038 v -4.671 h -1.038 z" />
      <g
         transform="translate(225.7742,120.6442)"
         id="g130">
        <path
           inkscape:connector-curvature="0"
           id="path132"
           style="fill:#ffffff;fill-opacity:1;fill-rule:nonzero;stroke:none"
           d="M 0,0 C -0.476,-0.001 -0.857,0.147 -1.115,0.414 -1.373,0.682 -1.502,1.061 -1.502,1.509 V 4.67 h 1.039 V 1.522 C -0.444,1.129 -0.371,1.044 0.006,1.026 H 1.449 V 0 Z" />
      </g>
      <g
         transform="translate(203.5711,158.0667)"
         id="g134">
        <path
           inkscape:connector-curvature="0"
           id="path136"
           style="fill:#c7bcaf;fill-opacity:1;fill-rule:nonzero;stroke:none"
           d="m 0,0 c 0,-2.01 -1.629,-3.639 -3.639,-3.639 -2.01,0 -3.639,1.629 -3.639,3.639 0,2.01 1.629,3.639 3.639,3.639 C -1.629,3.639 0,2.01 0,0" />
      </g>
      <g
         id="g9457"
         style="display:inline">
        <text
           xml:space="preserve"
           style="font-style:normal;font-weight:normal;font-size:15.6157px;line-height:1.25;font-family:sans-serif;fill:#ffffff;fill-opacity:1;stroke:none;stroke-width:0.39039"
           x="174.21547"
           y="-105.27401"
           id="text2945"
           transform="scale(1,-1)"><tspan
             sodipodi:role="line"
             id="tspan2943"
             style="font-style:normal;font-variant:normal;font-weight:normal;font-stretch:normal;font-family:Rapidone;-inkscape-font-specification:Rapidone;fill:#ffffff;fill-opacity:1;stroke-width:0.39039"
             x="174.21547"
             y="-105.27401">RELAIS</tspan></text>
      </g>
    </g>
  </g>
</svg>
